<?xml version="1.0" encoding="UTF-8"?>
<svg xmlns="http://www.w3.org/2000/svg" xmlns:xlink="http://www.w3.org/1999/xlink" width="25px" height="25px" viewBox="0 0 25 25" version="1.1">
<g id="surface1">
<path style=" stroke:none;fill-rule:nonzero;fill:rgb(50.588238%,50.588238%,50.588238%);fill-opacity:1;" d="M 21.6875 2.691406 C 20.25 3.839844 18.839844 4.964844 17.484375 6.046875 C 17.042969 5.671875 16.621094 5.308594 16.191406 4.953125 C 15.292969 4.210938 14.335938 3.539062 13.257812 3.027344 C 12.109375 2.484375 10.898438 2.148438 9.59375 2.164062 C 8.835938 2.171875 8.121094 2.320312 7.496094 2.738281 C 6.671875 3.289062 6.429688 4.539062 7.011719 5.285156 C 7.332031 5.695312 7.804688 5.882812 8.3125 6.019531 C 9.441406 6.316406 10.609375 6.40625 11.773438 6.464844 C 13.542969 6.554688 15.3125 6.617188 17.082031 6.699219 C 18.472656 6.761719 19.835938 6.960938 21.117188 7.476562 C 23.050781 8.25 24.273438 9.554688 24.703125 11.441406 C 24.921875 12.410156 24.957031 13.378906 24.695312 14.347656 C 24.527344 14.984375 24.226562 15.570312 23.851562 16.128906 C 23.230469 17.042969 22.449219 17.847656 21.652344 18.632812 C 20.253906 20 18.878906 21.378906 17.585938 22.832031 C 16.976562 23.519531 16.367188 24.210938 15.757812 24.902344 C 15.742188 24.921875 15.730469 24.941406 15.71875 24.960938 C 15.363281 24.820312 15.027344 24.6875 14.6875 24.554688 C 13.507812 24.105469 12.304688 23.707031 11.058594 23.417969 C 9.3125 23.015625 7.542969 22.820312 5.738281 22.972656 C 3.816406 23.132812 2.023438 23.648438 0.429688 24.65625 C 0.332031 24.71875 0.234375 24.785156 0.101562 24.824219 C 0.246094 24.574219 0.378906 24.320312 0.539062 24.078125 C 1.617188 22.429688 3.046875 21.089844 4.855469 20.101562 C 6.46875 19.214844 8.226562 18.726562 10.101562 18.566406 C 11.992188 18.40625 13.839844 18.578125 15.640625 19.121094 C 16.539062 19.394531 17.378906 19.769531 18.140625 20.308594 C 18.292969 20.148438 18.441406 19.996094 18.585938 19.835938 C 19.375 18.953125 20.179688 18.082031 20.945312 17.179688 C 21.433594 16.605469 21.796875 15.960938 21.898438 15.230469 C 22.023438 14.347656 21.890625 13.507812 21.234375 12.792969 C 20.789062 12.3125 20.195312 12.027344 19.558594 11.8125 C 18.277344 11.382812 16.9375 11.222656 15.585938 11.125 C 13.792969 10.996094 12.003906 10.90625 10.210938 10.773438 C 9.019531 10.6875 7.839844 10.53125 6.710938 10.152344 C 5.757812 9.835938 4.941406 9.347656 4.464844 8.496094 C 4.179688 7.984375 4.0625 7.433594 4.03125 6.867188 C 3.945312 5.441406 4.34375 4.132812 5.324219 3 C 6.066406 2.140625 7.015625 1.503906 8.117188 1.082031 C 10.769531 0.0664062 13.523438 -0.117188 16.335938 0.359375 C 17.792969 0.605469 19.140625 1.121094 20.398438 1.832031 C 20.828125 2.082031 21.238281 2.394531 21.6875 2.691406 Z M 21.6875 2.691406 "/>
<path style=" stroke:none;fill-rule:nonzero;fill:rgb(50.588238%,50.588238%,50.588238%);fill-opacity:1;" d="M 17.496094 19.273438 C 17.542969 19.058594 17.574219 18.882812 17.609375 18.703125 C 17.753906 17.980469 17.457031 17.480469 16.710938 17.179688 C 16.03125 16.910156 15.316406 16.777344 14.59375 16.710938 C 13.199219 16.578125 11.800781 16.472656 10.402344 16.359375 C 8.882812 16.238281 7.347656 16.210938 5.847656 15.910156 C 5.074219 15.753906 4.328125 15.546875 3.632812 15.195312 C 2.535156 14.636719 1.90625 13.796875 1.742188 12.675781 C 1.609375 11.785156 1.65625 10.910156 2.078125 10.074219 C 2.277344 9.679688 2.5625 9.328125 2.925781 8.976562 C 2.839844 9.5 2.988281 9.933594 3.300781 10.320312 C 3.609375 10.695312 4.015625 10.964844 4.46875 11.183594 C 5.613281 11.742188 6.867188 11.988281 8.136719 12.175781 C 9.410156 12.363281 10.695312 12.4375 11.984375 12.480469 C 13.363281 12.523438 14.738281 12.597656 16.09375 12.835938 C 16.867188 12.96875 17.628906 13.160156 18.3125 13.53125 C 19.476562 14.160156 19.851562 15.121094 19.6875 16.285156 C 19.527344 17.40625 18.828125 18.253906 17.910156 18.972656 C 17.789062 19.070312 17.660156 19.160156 17.496094 19.273438 Z M 17.496094 19.273438 "/>
</g>
</svg>
