<?xml version="1.0" encoding="utf-8"?>
<!-- Generator: Adobe Illustrator 24.1.1, SVG Export Plug-In . SVG Version: 6.00 Build 0)  -->
<svg version="1.1" id="Capa_1" xmlns="http://www.w3.org/2000/svg" xmlns:xlink="http://www.w3.org/1999/xlink" x="0px" y="0px"
	 viewBox="0 0 578.9 576.8" style="enable-background:new 0 0 578.9 576.8;" xml:space="preserve">
<style type="text/css">
	.st0{fill:#CA9C4D;}
</style>
<path class="st0" d="M365,230.3c-20.1,0-38.7,6.6-53.6,17.7c4.3,5.5,7.5,11.8,9.4,18.8c3.6,13.5,4.3,26.4,2.2,38.3h26.9v-40.4h30.2
	v40.4h40.4v30.2h-40.4v40.4h-30.2v-40.4h-39.6c-2.4,3.4-5.2,6.7-8.2,9.8c-4.2,4.3-9.9,10.7-16.1,18c15.3,28,44.9,47,79.1,47
	c49.7,0,90-40.3,90-90C455,270.6,414.7,230.3,365,230.3z"/>
<path class="st0" d="M246.9,224.3l36.8-32.1c0,0-24.4-25.7-72-25.7c-47.6,0-83.6,20.1-83.6,62.6c0,42.4,55.7,43.3,78,43.3
	c22.3,0,83.6,2.6,78.8,34.7c-4.7,32.1-33.4,57-33.4,57s-19.7-20.1-60-20.1c-70.7,0-96.8,62.6-96.8,62.6s16.7-16.3,68.1-16.3
	c41.6,0,67.7,20.1,67.7,20.1s44.1-55.7,62.1-74.1c18-18.4,21.9-41.6,15.4-66c-6.4-24.4-36.4-37.3-60.8-37.3c-24.4,0-65.1,2.1-82.7-9
	c-17.6-11.1-10.7-32.6,7.7-35.1C190.8,186.2,205.8,190,246.9,224.3"/>
<path class="st0" d="M248.1,352.2c0,0,19.2-10.6,19.2-32.4c0-21.8-25.1-32.4-71.3-32.4c-46.2,0-80.2-12.2-77.6-32.4
	c0,0-20.5,39,9.6,57.8c21.1,13.2,47.2,13.5,94.8,14.2C238.2,327.3,252.4,334.7,248.1,352.2"/>
</svg>
