<svg width="146" height="164" viewBox="0 0 146 164" fill="none" xmlns="http://www.w3.org/2000/svg">
<rect x="36" y="27" width="25" height="110" fill="white"/>
<rect x="85" y="27" width="25" height="110" fill="white"/>
<path d="M36.5 26.8333C36.2239 26.8333 36 27.0572 36 27.3333V136.667C36 136.943 36.2239 137.167 36.5 137.167H60.8333C61.1095 137.167 61.3333 136.943 61.3333 136.667V27.3333C61.3333 27.0572 61.1095 26.8333 60.8333 26.8333H36.5ZM85.1667 26.8333C84.8905 26.8333 84.6667 27.0572 84.6667 27.3333V136.667C84.6667 136.943 84.8905 137.167 85.1667 137.167H109.5C109.776 137.167 110 136.943 110 136.667V27.3333C110 27.0572 109.776 26.8333 109.5 26.8333H85.1667Z" stroke="white" stroke-linecap="round" stroke-linejoin="round"/>
</svg>
