<svg width="249" height="249" viewBox="0 0 249 249" fill="none" xmlns="http://www.w3.org/2000/svg">
<path d="M28 127C28 47.944 44.944 31 124 31C203.056 31 220 47.944 220 127C220 206.056 203.056 223 124 223C44.944 223 28 206.056 28 127Z" stroke="#818181" stroke-width="13"/>
<path d="M155.625 103.75C155.625 120.94 141.69 134.875 124.5 134.875C107.31 134.875 93.375 120.94 93.375 103.75C93.375 86.5602 107.31 72.625 124.5 72.625C141.69 72.625 155.625 86.5602 155.625 103.75Z" stroke="#818181" stroke-width="13"/>
<path d="M62.25 197.125C68.8712 173.188 85.9048 166 124.5 166C163.095 166 180.129 172.666 186.75 196.603" stroke="#818181" stroke-width="13" stroke-linecap="round"/>
</svg>
