<?xml version="1.0" encoding="UTF-8"?>
<svg xmlns="http://www.w3.org/2000/svg" xmlns:xlink="http://www.w3.org/1999/xlink" width="25px" height="25px" viewBox="0 0 25 25" version="1.1">
<g id="surface1">
<path style=" stroke:none;fill-rule:nonzero;fill:rgb(50.588238%,50.588238%,50.588238%);fill-opacity:1;" d="M 9.410156 19.820312 L 3.894531 19.820312 C 3.59375 19.820312 3.347656 20.105469 3.347656 20.460938 C 3.347656 20.8125 3.59375 21.097656 3.894531 21.097656 L 9.410156 21.097656 C 9.710938 21.097656 9.957031 20.8125 9.957031 20.460938 C 9.957031 20.105469 9.710938 19.820312 9.410156 19.820312 Z M 9.410156 19.820312 "/>
<path style=" stroke:none;fill-rule:nonzero;fill:rgb(50.588238%,50.588238%,50.588238%);fill-opacity:1;" d="M 17.65625 19.820312 L 12.140625 19.820312 C 11.839844 19.820312 11.59375 20.105469 11.59375 20.460938 C 11.59375 20.8125 11.839844 21.097656 12.140625 21.097656 L 17.65625 21.097656 C 17.957031 21.097656 18.203125 20.8125 18.203125 20.460938 C 18.203125 20.105469 17.957031 19.820312 17.65625 19.820312 Z M 17.65625 19.820312 "/>
<path style=" stroke:none;fill-rule:nonzero;fill:rgb(50.588238%,50.588238%,50.588238%);fill-opacity:1;" d="M 17.65625 3.835938 L 3.894531 3.835938 C 3.59375 3.835938 3.347656 4.121094 3.347656 4.476562 C 3.347656 4.828125 3.59375 5.113281 3.894531 5.113281 L 17.65625 5.113281 C 17.957031 5.113281 18.203125 4.828125 18.203125 4.476562 C 18.203125 4.121094 17.957031 3.835938 17.65625 3.835938 Z M 17.65625 3.835938 "/>
<path style=" stroke:none;fill-rule:nonzero;fill:rgb(50.588238%,50.588238%,50.588238%);fill-opacity:1;" d="M 17.65625 7.03125 L 12.140625 7.03125 C 11.839844 7.03125 11.59375 7.320312 11.59375 7.671875 C 11.59375 8.027344 11.839844 8.3125 12.140625 8.3125 L 17.65625 8.3125 C 17.957031 8.3125 18.203125 8.027344 18.203125 7.671875 C 18.203125 7.320312 17.957031 7.03125 17.65625 7.03125 Z M 17.65625 7.03125 "/>
<path style=" stroke:none;fill-rule:nonzero;fill:rgb(50.588238%,50.588238%,50.588238%);fill-opacity:1;" d="M 17.65625 10.230469 L 12.140625 10.230469 C 11.839844 10.230469 11.59375 10.515625 11.59375 10.867188 C 11.59375 11.222656 11.839844 11.507812 12.140625 11.507812 L 17.65625 11.507812 C 17.957031 11.507812 18.203125 11.222656 18.203125 10.867188 C 18.203125 10.515625 17.957031 10.230469 17.65625 10.230469 Z M 17.65625 10.230469 "/>
<path style=" stroke:none;fill-rule:nonzero;fill:rgb(50.588238%,50.588238%,50.588238%);fill-opacity:1;" d="M 17.65625 13.425781 L 12.140625 13.425781 C 11.839844 13.425781 11.59375 13.710938 11.59375 14.066406 C 11.59375 14.417969 11.839844 14.707031 12.140625 14.707031 L 17.65625 14.707031 C 17.957031 14.707031 18.203125 14.417969 18.203125 14.066406 C 18.203125 13.710938 17.957031 13.425781 17.65625 13.425781 Z M 17.65625 13.425781 "/>
<path style=" stroke:none;fill-rule:nonzero;fill:rgb(50.588238%,50.588238%,50.588238%);fill-opacity:1;" d="M 17.65625 16.625 L 12.140625 16.625 C 11.839844 16.625 11.59375 16.910156 11.59375 17.261719 C 11.59375 17.617188 11.839844 17.902344 12.140625 17.902344 L 17.65625 17.902344 C 17.957031 17.902344 18.203125 17.617188 18.203125 17.261719 C 18.203125 16.910156 17.957031 16.625 17.65625 16.625 Z M 17.65625 16.625 "/>
<path style=" stroke:none;fill-rule:nonzero;fill:rgb(50.588238%,50.588238%,50.588238%);fill-opacity:1;" d="M 9.410156 16.625 L 3.894531 16.625 C 3.59375 16.625 3.347656 16.910156 3.347656 17.261719 C 3.347656 17.617188 3.59375 17.902344 3.894531 17.902344 L 9.410156 17.902344 C 9.710938 17.902344 9.957031 17.617188 9.957031 17.261719 C 9.957031 16.910156 9.710938 16.625 9.410156 16.625 Z M 9.410156 16.625 "/>
<path style=" stroke:none;fill-rule:nonzero;fill:rgb(50.588238%,50.588238%,50.588238%);fill-opacity:1;" d="M 9.410156 7.03125 L 3.894531 7.03125 C 3.59375 7.03125 3.347656 7.320312 3.347656 7.671875 L 3.347656 14.128906 C 3.347656 14.484375 3.59375 14.769531 3.894531 14.769531 L 9.410156 14.769531 C 9.710938 14.769531 9.957031 14.484375 9.957031 14.128906 L 9.957031 7.671875 C 9.957031 7.320312 9.710938 7.03125 9.410156 7.03125 Z M 8.863281 13.492188 L 4.441406 13.492188 L 4.441406 8.3125 L 8.863281 8.3125 Z M 8.863281 13.492188 "/>
<path style=" stroke:none;fill-rule:nonzero;fill:rgb(50.588238%,50.588238%,50.588238%);fill-opacity:1;" d="M 23.117188 3.195312 L 21.476562 3.195312 L 21.476562 1.277344 C 21.476562 0.574219 20.988281 0 20.386719 0 L 1.164062 0 C 0.5625 0 0.0703125 0.574219 0.0703125 1.277344 L 0.0703125 21.738281 C 0.0703125 23.5 1.296875 24.933594 2.800781 24.933594 L 21.476562 24.933594 C 22.984375 24.933594 24.207031 23.5 24.207031 21.738281 L 24.207031 4.476562 C 24.207031 3.769531 23.71875 3.195312 23.117188 3.195312 Z M 23.117188 21.738281 C 23.117188 22.796875 22.382812 23.65625 21.476562 23.65625 L 2.800781 23.65625 C 1.898438 23.65625 1.164062 22.796875 1.164062 21.738281 L 1.164062 1.277344 L 20.386719 1.277344 L 20.386719 20.777344 C 20.386719 21.660156 21 22.378906 21.75 22.378906 C 22.054688 22.378906 22.296875 22.089844 22.296875 21.738281 C 22.296875 21.386719 22.054688 21.097656 21.75 21.097656 C 21.601562 21.097656 21.476562 20.957031 21.476562 20.777344 L 21.476562 4.476562 L 23.117188 4.476562 Z M 23.117188 21.738281 "/>
</g>
</svg>
