<svg width="102" height="102" viewBox="0 0 102 102" fill="none" xmlns="http://www.w3.org/2000/svg">
<path d="M6 81V51C6 39.0653 10.7411 27.6193 19.1802 19.1802C27.6193 10.7411 39.0653 6 51 6C62.9347 6 74.3807 10.7411 82.8198 19.1802C91.2589 27.6193 96 39.0653 96 51V81M96 86C96 88.6522 94.9464 91.1957 93.0711 93.0711C91.1957 94.9464 88.6522 96 86 96H81C78.3478 96 75.8043 94.9464 73.9289 93.0711C72.0536 91.1957 71 88.6522 71 86V71C71 68.3478 72.0536 65.8043 73.9289 63.9289C75.8043 62.0536 78.3478 61 81 61H96V86ZM6 86C6 88.6522 7.05357 91.1957 8.92893 93.0711C10.8043 94.9464 13.3478 96 16 96H21C23.6522 96 26.1957 94.9464 28.0711 93.0711C29.9464 91.1957 31 88.6522 31 86V71C31 68.3478 29.9464 65.8043 28.0711 63.9289C26.1957 62.0536 23.6522 61 21 61H6V86Z" stroke="white" stroke-width="11" stroke-linecap="round" stroke-linejoin="round"/>
</svg>
