<svg width="181" height="200" viewBox="0 0 181 200" fill="none" xmlns="http://www.w3.org/2000/svg">
<path d="M157.025 21.525C146.6 30.725 136.4 39.725 126.6 48.375C123.4 45.375 120.35 42.475 117.225 39.625C110.725 33.675 103.8 28.325 95.975 24.225C87.675 19.875 78.9 17.175 69.45 17.3C63.975 17.375 58.8 18.55 54.275 21.9C48.3 26.325 46.55 36.3 50.775 42.275C53.075 45.55 56.5 47.075 60.175 48.15C68.35 50.525 76.8 51.25 85.25 51.725C98.05 52.45 110.875 52.95 123.675 53.6C133.75 54.1 143.625 55.675 152.9 59.8C166.875 66 175.75 76.425 178.85 91.525C180.425 99.275 180.675 107.025 178.8 114.775C177.575 119.875 175.4 124.575 172.675 129.025C168.175 136.35 162.525 142.775 156.75 149.05C146.65 160 136.675 171.025 127.325 182.65C122.9 188.15 118.5 193.7 114.1 199.225C113.975 199.375 113.9 199.525 113.8 199.675C111.225 198.575 108.8 197.5 106.35 196.45C97.8 192.85 89.075 189.65 80.075 187.35C67.425 184.125 54.6 182.55 41.55 183.775C27.625 185.075 14.65 189.175 3.09997 197.25C2.39997 197.75 1.69998 198.275 0.724976 198.6C1.77498 196.6 2.74997 194.575 3.89997 192.625C11.7 179.45 22.05 168.725 35.15 160.8C46.825 153.725 59.55 149.8 73.125 148.525C86.825 147.25 100.2 148.625 113.25 152.975C119.75 155.15 125.825 158.15 131.35 162.475C132.45 161.2 133.525 159.975 134.55 158.7C140.275 151.625 146.1 144.65 151.65 137.45C155.175 132.85 157.8 127.7 158.55 121.85C159.45 114.775 158.5 108.05 153.725 102.35C150.5 98.5 146.225 96.225 141.6 94.5C132.325 91.075 122.625 89.775 112.85 89C99.875 87.975 86.9 87.25 73.925 86.2C65.3 85.5 56.75 84.25 48.575 81.225C41.675 78.675 35.775 74.775 32.325 67.975C30.25 63.875 29.4 59.475 29.175 54.95C28.575 43.525 31.45 33.075 38.55 24C43.925 17.125 50.8 12.025 58.775 8.65003C77.975 0.525034 97.9 -0.924969 118.275 2.87503C128.825 4.85003 138.575 8.97503 147.675 14.65C150.8 16.65 153.775 19.15 157.025 21.525Z" fill="#818181"/>
<path d="M126.675 154.2C127 152.475 127.25 151.05 127.5 149.625C128.55 143.85 126.375 139.85 120.975 137.45C116.075 135.275 110.9 134.225 105.65 133.675C95.55 132.625 85.425 131.775 75.325 130.875C64.3 129.9 53.2 129.7 42.325 127.275C36.75 126.025 31.325 124.375 26.3 121.55C18.35 117.1 13.8 110.375 12.6 101.4C11.65 94.275 12 87.2751 15.05 80.6C16.5 77.425 18.55 74.625 21.175 71.8C20.55 76 21.625 79.475 23.9 82.55C26.125 85.55 29.075 87.725 32.35 89.475C40.65 93.95 49.725 95.9001 58.9 97.4001C68.125 98.9001 77.425 99.5001 86.775 99.8501C96.75 100.2 106.7 100.775 116.525 102.675C122.125 103.75 127.625 105.275 132.575 108.25C141 113.275 143.725 120.975 142.525 130.275C141.375 139.25 136.325 146.025 129.675 151.775C128.8 152.575 127.85 153.275 126.675 154.2Z" fill="#818181"/>
</svg>
