<svg width="200" height="200" viewBox="0 0 200 200" fill="none" xmlns="http://www.w3.org/2000/svg">
<path d="M75.2744 158.561H31.1489C28.736 158.561 26.78 160.851 26.78 163.676C26.78 166.501 28.736 168.791 31.1489 168.791H75.2744C77.6875 168.791 79.6434 166.501 79.6434 163.676C79.6434 160.851 77.6875 158.561 75.2744 158.561Z" fill="#818181"/>
<path d="M141.244 158.561H97.1186C94.7055 158.561 92.7496 160.851 92.7496 163.676C92.7496 166.501 94.7055 168.791 97.1186 168.791H141.244C143.657 168.791 145.613 166.501 145.613 163.676C145.613 160.851 143.657 158.561 141.244 158.561Z" fill="#818181"/>
<path d="M141.244 30.6891H31.1489C28.736 30.6891 26.78 32.9791 26.78 35.804C26.78 38.6289 28.736 40.9189 31.1489 40.9189H141.244C143.657 40.9189 145.613 38.6289 145.613 35.804C145.613 32.9791 143.657 30.6891 141.244 30.6891Z" fill="#818181"/>
<path d="M141.244 56.2637H97.1186C94.7055 56.2637 92.7496 58.5536 92.7496 61.3785C92.7496 64.2035 94.7055 66.4934 97.1186 66.4934H141.244C143.657 66.4934 145.613 64.2035 145.613 61.3785C145.613 58.5536 143.657 56.2637 141.244 56.2637Z" fill="#818181"/>
<path d="M141.244 81.8379H97.1186C94.7055 81.8379 92.7496 84.1279 92.7496 86.9529C92.7496 89.7779 94.7055 92.0679 97.1186 92.0679H141.244C143.657 92.0679 145.613 89.7779 145.613 86.9529C145.613 84.1279 143.657 81.8379 141.244 81.8379Z" fill="#818181"/>
<path d="M141.244 107.412H97.1186C94.7055 107.412 92.7496 109.702 92.7496 112.527C92.7496 115.352 94.7055 117.642 97.1186 117.642H141.244C143.657 117.642 145.613 115.352 145.613 112.527C145.613 109.702 143.657 107.412 141.244 107.412Z" fill="#818181"/>
<path d="M141.244 132.986H97.1186C94.7055 132.986 92.7496 135.276 92.7496 138.101C92.7496 140.926 94.7055 143.216 97.1186 143.216H141.244C143.657 143.216 145.613 140.926 145.613 138.101C145.613 135.276 143.657 132.986 141.244 132.986Z" fill="#818181"/>
<path d="M75.2744 132.986H31.1489C28.736 132.986 26.78 135.276 26.78 138.101C26.78 140.926 28.736 143.216 31.1489 143.216H75.2744C77.6875 143.216 79.6434 140.926 79.6434 138.101C79.6434 135.276 77.6875 132.986 75.2744 132.986Z" fill="#818181"/>
<path d="M75.2744 56.2637H31.1489C28.736 56.2637 26.78 58.5536 26.78 61.3785V113.039C26.78 115.864 28.736 118.154 31.1489 118.154H75.2744C77.6875 118.154 79.6434 115.864 79.6434 113.039V61.3785C79.6434 58.5536 77.6875 56.2637 75.2744 56.2637ZM70.9055 107.924H35.5178V66.4934H70.9055V107.924Z" fill="#818181"/>
<path d="M184.932 25.5743H171.826V10.2297C171.826 4.58906 167.906 0 163.088 0H9.30461C4.48664 0 0.566895 4.58906 0.566895 10.2297V173.906C0.566895 188.007 10.3663 199.48 22.4112 199.48H171.826C183.871 199.48 193.67 188.007 193.67 173.906V35.8041C193.67 30.1634 189.75 25.5743 184.932 25.5743ZM184.932 173.906C184.932 182.366 179.053 189.25 171.826 189.25H22.4112C15.1842 189.25 9.30461 182.366 9.30461 173.906V10.2297H163.088V166.233C163.088 173.284 167.988 179.02 174.01 179.02C176.423 179.02 178.379 176.73 178.379 173.906C178.379 171.081 176.423 168.791 174.01 168.791C172.806 168.791 171.826 167.644 171.826 166.233V35.8041H184.932V173.906Z" fill="#818181"/>
</svg>
