<svg width="102" height="112" viewBox="0 0 102 112" fill="none" xmlns="http://www.w3.org/2000/svg">
<path d="M33.95 63.55L68.1 83.45M68.05 28.55L33.95 48.45M96 21C96 29.2843 89.2843 36 81 36C72.7157 36 66 29.2843 66 21C66 12.7157 72.7157 6 81 6C89.2843 6 96 12.7157 96 21ZM36 56C36 64.2843 29.2843 71 21 71C12.7157 71 6 64.2843 6 56C6 47.7157 12.7157 41 21 41C29.2843 41 36 47.7157 36 56ZM96 91C96 99.2843 89.2843 106 81 106C72.7157 106 66 99.2843 66 91C66 82.7157 72.7157 76 81 76C89.2843 76 96 82.7157 96 91Z" stroke="white" stroke-width="11" stroke-linecap="round" stroke-linejoin="round"/>
</svg>
