<?xml version="1.0" encoding="UTF-8"?>
<!DOCTYPE svg PUBLIC "-//W3C//DTD SVG 1.1//EN" "http://www.w3.org/Graphics/SVG/1.1/DTD/svg11.dtd">
<!-- Creator: CorelDRAW (Versión de evaluación) -->
<svg xmlns="http://www.w3.org/2000/svg" xml:space="preserve" width="33.8666mm" height="33.8666mm" version="1.1" style="shape-rendering:geometricPrecision; text-rendering:geometricPrecision; image-rendering:optimizeQuality; fill-rule:evenodd; clip-rule:evenodd"
viewBox="0 0 3386.66 3386.66"
 xmlns:xlink="http://www.w3.org/1999/xlink"
 xmlns:xodm="http://www.corel.com/coreldraw/odm/2003">
 <defs>
  <style type="text/css">
   <![CDATA[
    .fil0 {fill:red;fill-rule:nonzero}
   ]]>
  </style>
 </defs>
 <g id="Capa_x0020_1">
  <metadata id="CorelCorpID_0Corel-Layer"/>
  <g>
   <path class="fil0" d="M357.43 750.79c-125.02,112.04 -187.99,261.14 -187.99,448.21 0,191.7 58.35,342.65 175.95,451.92 117.6,109.27 269.46,163.91 455.63,163.91 191.69,0 346.32,-63.91 463.96,-191.7 26.84,106.51 26.84,218.54 0,336.14 -21.32,138.92 -90.76,274.12 -207.45,407.47 -117.6,133.35 -250.95,231.53 -400.05,295.4l72.24 143.54c288.02,-133.35 500.08,-313.01 635.25,-539.88 136.12,-226.87 203.74,-473.2 203.74,-739.9 0,-122.25 -14.81,-245.38 -44.45,-367.64 -29.65,-122.25 -73.15,-221.34 -131.5,-295.4 -52.78,-90.75 -127.78,-160.19 -224.1,-208.35 -96.32,-48.16 -210.21,-72.24 -343.56,-72.24 -186.13,0.91 -342.65,56.45 -467.67,168.52l0 0zm1646.5 0c-125.02,112.04 -187.98,261.14 -187.98,448.21 0,191.7 58.34,342.65 175.94,451.92 117.6,109.27 269.47,163.91 455.63,163.91 191.7,0 346.33,-63.91 463.96,-191.7 26.85,106.51 26.85,218.54 0,336.14 -21.31,138.92 -90.75,274.12 -207.44,407.47 -117.6,133.35 -250.95,231.53 -400.05,295.4l72.24 143.54c288.01,-133.35 500.08,-313.01 635.25,-539.88 136.11,-226.87 203.73,-473.2 203.73,-739.9 0,-122.25 -14.8,-245.38 -44.45,-367.64 -29.64,-122.25 -73.15,-221.34 -131.49,-295.4 -53.73,-90.75 -127.79,-160.19 -224.11,-208.35 -96.32,-48.16 -210.21,-72.24 -343.56,-72.24 -186.13,0.91 -341.74,56.45 -467.67,168.52z"/>
  </g>
 </g>
</svg>
